<svg width="64" height="64" viewBox="0 0 64 64" xmlns="http://www.w3.org/2000/svg">
    <g fill="none" fill-rule="evenodd">
        <path d="M14 13a2 2 0 0 1 2-2h39c1.105 0 2-.038 2 1.066V51a2 2 0 0 1-2 2H16a2 2 0 0 1-2-2v-3.55" stroke="#000" stroke-width="2" fill="#FFF"/>
        <path d="M16.1 10h38.887a2 2 0 0 1 1.945 2.466l-8.151 34A2 2 0 0 1 46.836 48H7.95a2 2 0 0 1-1.944-2.466l8.15-34A2 2 0 0 1 16.1 10z" stroke="#000" stroke-width="2" fill="#FFF"/>
        <path d="M16.101 10h38.853a2 2 0 0 1 1.939 2.49l-1.416 5.598H12.589l1.567-6.553A2 2 0 0 1 16.101 10z" stroke="#000" stroke-width="2" fill="#DBED8B"/>
        <path d="m25.68 6.078.046.011a.953.953 0 0 1 .682 1.2l-.889 2.951a1 1 0 0 1-1.2.682l-.045-.011a.953.953 0 0 1-.682-1.2l.889-2.951a1 1 0 0 1 1.2-.682zM46.68 6.078l.046.011a.953.953 0 0 1 .682 1.2l-.889 2.951a1 1 0 0 1-1.2.682l-.045-.011a.953.953 0 0 1-.682-1.2l.889-2.951a1 1 0 0 1 1.2-.682z" fill="#000"/>
        <path stroke="#000" stroke-width="2" stroke-linecap="round" stroke-linejoin="round" d="M24 30.31 27.334 35 37 27"/>
    </g>
</svg>
