<svg width="64" height="64" viewBox="0 0 64 64" xmlns="http://www.w3.org/2000/svg" xmlns:xlink="http://www.w3.org/1999/xlink">
    <defs>
        <path id="jj2to3y30a" d="M0 0h64v64H0z"/>
    </defs>
    <g fill="none" fill-rule="evenodd">
        <mask id="dppcvnwvpb" fill="#fff">
            <use xlink:href="#jj2to3y30a"/>
        </mask>
        <g mask="url(#dppcvnwvpb)">
            <path d="M11.517 12h41.966c1.171 0 2.12.95 2.12 2.12V44H9.397V14.12c0-1.17.949-2.12 2.12-2.12z" stroke="#000" stroke-width="2" fill="#FFF"/>
            <path d="M4.157 52h56.686a2.12 2.12 0 0 0 1.49-3.627l-6.73-6.659H9.397l-6.73 6.659A2.12 2.12 0 0 0 4.156 52z" stroke="#000" stroke-width="2" fill="#FFF"/>
            <g stroke-width=".5">
                <path d="M47.577 31.882c-.009-.168-.023-.325-.023-.481-.002-1.802 0-3.603-.003-5.405 0-.177-.007-.355-.03-.53-.102-.742-.534-1.158-1.288-1.19-.634-.027-1.27-.006-1.95-.006v7.596h-1.43V24.29H39.63v7.578h-1.406v-8.826c.128-.011.246-.031.365-.031 2.557-.003 5.114-.009 7.671 0 1.537.006 2.664 1.002 2.708 2.523.061 2.098.015 4.2.015 6.347h-1.406zM35.3 30.63v-2.673c-.128-.007-.235-.018-.342-.019-1.076 0-2.152-.004-3.228.001-.79.004-1.338.562-1.339 1.35 0 .791.534 1.333 1.343 1.339 1.02.007 2.041.002 3.062.002h.504zm1.445 1.247c-1.893 0-3.717 0-5.54-.003-.094 0-.19-.033-.284-.054-1.283-.281-2.045-1.356-1.953-2.748.086-1.287 1.008-2.273 2.282-2.337 1.172-.059 2.35-.029 3.524-.038h.569c-.03-.458-.006-.885-.096-1.285-.166-.737-.753-1.136-1.607-1.144-1.079-.01-2.158-.002-3.237-.003h-.486c.212-.409.393-.771.589-1.126.033-.059.13-.12.195-.119 1.31.027 2.633-.033 3.928.124 1.228.15 2.024 1.09 2.074 2.316.068 1.65.034 3.303.042 4.955.003.476 0 .952 0 1.462zm-12.89-.008v-.453c0-1.746.013-3.493-.003-5.24-.016-1.753 1.135-3.271 3.189-3.171.603.029 1.21.004 1.892.004-.219.422-.394.788-.601 1.135-.044.075-.203.112-.311.116-.36.014-.719.001-1.078.007-.829.013-1.449.521-1.599 1.324a4.307 4.307 0 0 0-.072.772c-.006 1.678-.002 3.357-.002 5.035v.471h-1.414z" stroke="#000" fill="#000"/>
                <path d="M22.39 23.04v.535c0 2.784.015 5.568-.012 8.352a4.501 4.501 0 0 1-.294 1.551c-.36.93-1.153 1.414-2.116 1.482-1.122.078-2.254.018-3.425.018.186-.37.345-.731.548-1.065.058-.096.244-.158.373-.162.622-.017 1.245-.002 1.866-.01 1.15-.012 1.742-.646 1.687-1.855-.667 0-1.34.037-2.008-.012-.53-.039-1.077-.113-1.571-.295-1.142-.419-1.823-1.3-2.169-2.424a5.802 5.802 0 0 1 .043-3.624c.512-1.517 1.62-2.37 3.22-2.475 1.26-.083 2.532-.016 3.859-.016zm-3.732 1.274c-1.019.1-1.682.714-1.986 1.67a4.716 4.716 0 0 0 .014 2.975c.277.834.832 1.47 1.726 1.585.824.106 1.671.023 2.533.023V24.3c-.779 0-1.54-.059-2.287.014z" stroke="#DA0F47" fill="#DA0F47"/>
            </g>
        </g>
    </g>
</svg>
