<svg width="64" height="64" viewBox="0 0 64 64" xmlns="http://www.w3.org/2000/svg">
    <g fill="none" fill-rule="evenodd">
        <path stroke="#000" stroke-width="2" stroke-linecap="round" stroke-linejoin="round" d="m27.154 40.341 5.384 4.83L27.154 50"/>
        <path d="M54.092 28C57.789 29.823 60 32.136 60 34.653c0 5.295-9.788 9.689-22.615 10.518m-5.385 0c-15.464 0-28-4.627-28-10.335 0-2.621 2.644-5.014 7-6.836" stroke="#000" stroke-width="2" stroke-linecap="round" stroke-linejoin="round"/>
        <g fill="#6635EA" fill-rule="nonzero">
            <path d="M18 18h3.4l3.66 9.86L28.72 18h3.32l-5.66 14.1h-2.72zM40.4 24.8c.76 0 1.343-.18 1.75-.54.407-.36.61-.84.61-1.44v-.04c0-.667-.213-1.167-.64-1.5-.427-.333-1.02-.5-1.78-.5h-3.06v4.02h3.12zM34.2 18h6.4c1.773 0 3.133.473 4.08 1.42.8.8 1.2 1.867 1.2 3.2v.04c0 1.133-.277 2.057-.83 2.77-.553.713-1.277 1.237-2.17 1.57l3.42 5h-3.6l-3-4.48h-2.42V32H34.2V18z"/>
        </g>
    </g>
</svg>
