<?xml version="1.0" encoding="UTF-8"?>
<svg width="40px" height="40px" viewBox="0 0 40 40" version="1.1" xmlns="http://www.w3.org/2000/svg" xmlns:xlink="http://www.w3.org/1999/xlink">
    <!-- Generator: Sketch 61.2 (89653) - https://sketch.com -->
    <title>icon-64-phone-line</title>
    <desc>Created with Sketch.</desc>
    <g id="Page-1" stroke="none" stroke-width="1" fill="none" fill-rule="evenodd">
        <g id="Artboard" transform="translate(-30.000000, -14.000000)">
            <g id="btn_top_bottom_64" transform="translate(22.000000, 6.000000)">
                <g id="ic">
                    <circle id="Oval" cx="28" cy="28" r="28"></circle>
                    <g id="icon-64-phone-line" transform="translate(8.000000, 8.000000)">
                        <rect id="Rectangle" x="0" y="0" width="40" height="40"></rect>
                        <g id="Group-20" transform="translate(8.000000, 6.000000)">
                            <g id="Group-32" transform="translate(2.500000, 7.000000)">
                                <polyline id="Path" stroke="#000000" stroke-width="1.5625" stroke-linecap="round" stroke-linejoin="round" transform="translate(9.175000, 4.500000) rotate(-180.000000) translate(-9.175000, -4.500000) " points="18.175 0 9.175 9 0.175 0"></polyline>
                                <path d="M-1.125,10.6666667 L19.375,10.6666667 C19.7892136,10.6666667 20.125,11.0024531 20.125,11.4166667 C20.125,11.8308802 19.7892136,12.1666667 19.375,12.1666667 L-1.125,12.1666667 C-1.53921356,12.1666667 -1.875,11.8308802 -1.875,11.4166667 C-1.875,11.0024531 -1.53921356,10.6666667 -1.125,10.6666667 Z" id="Rectangle-Copy-2" fill="#000000" transform="translate(9.125000, 11.416667) rotate(-90.000000) translate(-9.125000, -11.416667) "></path>
                            </g>
                            <rect id="Rectangle" fill="#000000" x="0" y="0" width="24" height="1.5" rx="0.75"></rect>
                        </g>
                    </g>
                </g>
            </g>
        </g>
    </g>
</svg>