<svg width="64" height="64" viewBox="0 0 64 64" xmlns="http://www.w3.org/2000/svg">
    <g stroke="#000" stroke-width="2" fill="none" fill-rule="evenodd">
        <path d="M51 9c.552 0 1.052.224 1.414.586.362.362.586.862.586 1.414v43c0 .552-.224 1.052-.586 1.414A1.994 1.994 0 0 1 51 56H13a1.994 1.994 0 0 1-1.414-.586A1.994 1.994 0 0 1 11 54V11c0-.552.224-1.052.586-1.414A1.994 1.994 0 0 1 13 9z" fill="#FFF"/>
        <path d="M45 15c.552 0 1.052.224 1.414.586.362.362.586.862.586 1.414v31c0 .552-.224 1.052-.586 1.414A1.994 1.994 0 0 1 45 50H19a1.994 1.994 0 0 1-1.414-.586A1.994 1.994 0 0 1 17 48V17c0-.552.224-1.052.586-1.414A1.994 1.994 0 0 1 19 15z" fill="#C7FFFB"/>
        <path stroke-linecap="square" d="M32.5 16.5v33.361M18 22h28M18 29h28M18 36h28M18 43h28"/>
    </g>
</svg>
