<svg width="64" height="64" viewBox="0 0 64 64" xmlns="http://www.w3.org/2000/svg">
    <g fill="none" fill-rule="evenodd">
        <path d="M26.375 14h11.25A3.375 3.375 0 0 1 41 17.375V20H23v-2.625A3.375 3.375 0 0 1 26.375 14z" stroke="#000" stroke-width="2.25" fill="#FF8B00"/>
        <path stroke="#000" stroke-width="2" stroke-linecap="round" d="M36.243 9 32 13.243 25.757 7"/>
        <path d="M7 19h50a3 3 0 0 1 3 3v29a3 3 0 0 1-3 3H7a3 3 0 0 1-3-3V22a3 3 0 0 1 3-3z" stroke="#000" stroke-width="2" fill="#FFF"/>
        <g fill="#000" fill-rule="nonzero">
            <path d="M14.31 43h7.971v-1.83h-5.805V29.262h-2.165zM24.708 43h2.165V29.261h-2.165zM32.94 43h2.557l4.294-13.739h-2.203l-2.035 7.112c-.448 1.568-.784 2.912-1.25 4.499h-.094c-.485-1.587-.784-2.93-1.25-4.499l-2.035-7.112h-2.296L32.94 43zM41.564 43h8.325v-1.83h-6.16v-4.442h5.04v-1.83h-5.04v-3.826h5.955v-1.81h-8.12z"/>
        </g>
    </g>
</svg>
