<svg width="64" height="64" viewBox="0 0 64 64" xmlns="http://www.w3.org/2000/svg">
    <g fill="none" fill-rule="evenodd">
        <g stroke="#000" stroke-width="2">
            <path d="M23 8.897C23 7.85 23.873 7 24.95 7h22.1C48.127 7 49 7.85 49 8.897v39.206C49 49.15 48.127 50 47.05 50h-22.1c-1.077 0-1.95-.85-1.95-1.897V8.897z" fill="#E3FBFF"/>
            <path d="M23 31.635c0-.468.873-.848 1.95-.848h22.1c1.077 0 1.95.38 1.95.848v17.517c0 .469-.873.848-1.95.848h-22.1c-1.077 0-1.95-.38-1.95-.848V31.635z" fill="#FFF"/>
            <path fill="#FFF" stroke-linecap="round" stroke-linejoin="round" d="M39.9 12.059h5.2V25.97h-5.2z"/>
            <path stroke-linecap="round" d="M36 50V7"/>
            <path d="M23 31.029h26"/>
        </g>
        <g fill="#FFF">
            <path d="M29 49h8v4h-8z"/>
            <path d="M14.991 37H8.6c-.442 0-.841.182-1.131.474A1.63 1.63 0 0 0 7 38.621V56.77c0 .447.18.853.468 1.146.29.293.689.475 1.13.475h6.393c.441 0 .841-.182 1.13-.475a1.63 1.63 0 0 0 .469-1.146V38.62c0-.446-.18-.852-.468-1.146a1.585 1.585 0 0 0-1.13-.474z" stroke="#000" stroke-width="2"/>
            <path d="m44.02 46.643 11.327-4.388c1.378-.533 2.922.166 3.449 1.564l.008.02c.54 1.468-.066 3.116-1.422 3.869L37.887 58.523a3.786 3.786 0 0 1-3.14.247L22.3 54.23a7.565 7.565 0 0 0-2.597-.46H16.59h0V40.086l5.498-.817a7.576 7.576 0 0 1 4.233.592l6.154 2.78h8.89c1.467 0 2.656 1.205 2.656 2.692 0 1.485-1.19 2.69-2.657 2.69h-9.971 0c-1.645.189-2.467 1.088-2.467 2.702" stroke="#000" stroke-width="2" stroke-linecap="round" stroke-linejoin="round"/>
        </g>
    </g>
</svg>
